<svg width="270" height="77" viewBox="0 0 270 77" fill="none" xmlns="http://www.w3.org/2000/svg">
<path fill-rule="evenodd" clip-rule="evenodd" d="M15.2707 64.4738L11.4715 62.2498C10.4683 61.6626 9.53905 60.9164 8.6838 60.0114C7.84504 59.1354 7.12139 58.1534 6.51286 57.0656C5.92078 55.9873 5.45206 54.8561 5.10668 53.6719C4.77774 52.4974 4.61329 51.3133 4.61329 50.1195V37.816C4.61329 36.2371 4.22679 34.9904 3.4538 34.0757C2.6808 33.1419 1.52954 32.2274 0 31.332V25.9601L12.631 18.5664V23.9383C14.1605 24.8337 15.3118 25.7482 16.0848 26.682C16.8578 27.5967 17.2443 28.8434 17.2443 30.4223V42.7258C17.2443 43.9196 17.4087 45.1037 17.7377 46.2782C18.0831 47.4624 18.5518 48.5936 19.1439 49.6719C19.7524 50.7597 20.476 51.7417 21.3148 52.6178C22.1701 53.5227 23.0993 54.2689 24.1025 54.8561L27.9018 57.0801L15.2707 64.4738Z" fill="#6580E1" fill-opacity="0.6"/>
<path fill-rule="evenodd" clip-rule="evenodd" d="M0 25.9601C1.52954 26.8554 2.6808 27.3078 3.4538 27.3174C3.6084 27.3155 3.74753 27.2814 3.87121 27.2152L16.5022 19.8215C16.3785 19.8877 16.2394 19.9218 16.0848 19.9237C15.3118 19.9141 14.1605 19.4617 12.631 18.5664L0 25.9601Z" fill="#6580E1" fill-opacity="0.6"/>
<path fill-rule="evenodd" clip-rule="evenodd" d="M3.87115 27.2152C4.36587 26.9503 4.61323 26.1709 4.61323 24.8771V12.5734C4.61323 11.3797 4.77768 10.388 5.10662 9.59862C5.452 8.81882 5.92073 8.23637 6.5128 7.85128L19.1438 0.457581C18.5517 0.842667 18.083 1.42512 17.7376 2.20492C17.4087 2.99434 17.2442 3.98596 17.2442 5.17973V17.4834C17.2442 18.7772 16.9969 19.5566 16.5022 19.8215L3.87115 27.2152Z" fill="#6580E1" fill-opacity="0.6"/>
<path fill-rule="evenodd" clip-rule="evenodd" d="M6.51282 7.85128C6.52499 7.84377 6.5372 7.83636 6.54947 7.82903L19.1805 0.435333C19.1682 0.442658 19.156 0.450074 19.1438 0.457584L6.51282 7.85128Z" fill="#6580E1" fill-opacity="0.6"/>
<path fill-rule="evenodd" clip-rule="evenodd" d="M6.54938 7.82905C7.15024 7.47016 7.86168 7.33316 8.68367 7.41806C9.53891 7.4951 10.4682 7.82726 11.4713 8.41446L15.2706 10.6384V16.0104L27.9016 8.6167V3.24472L24.1023 1.02077C23.0992 0.433559 22.1699 0.101405 21.3147 0.0243624C20.4927 -0.0605369 19.7812 0.07646 19.1804 0.435353L6.54938 7.82905Z" fill="#6580E1" fill-opacity="0.6"/>
<path fill-rule="evenodd" clip-rule="evenodd" d="M15.2707 16.0104L11.4715 13.7864C10.6347 13.2966 10.048 13.1484 9.71143 13.3418L22.3424 5.94806C22.679 5.7547 23.2657 5.9029 24.1025 6.39273L27.9017 8.61668L15.2707 16.0104Z" fill="#6580E1" fill-opacity="0.6"/>
<path fill-rule="evenodd" clip-rule="evenodd" d="M9.71149 13.3418C9.69746 13.3498 9.68387 13.3585 9.67072 13.3677L22.3017 5.97404C22.3149 5.9648 22.3285 5.95615 22.3425 5.94809L9.71149 13.3418Z" fill="#6580E1" fill-opacity="0.6"/>
<path fill-rule="evenodd" clip-rule="evenodd" d="M9.67056 13.3677C9.35807 13.5891 9.20183 14.2197 9.20183 15.2595V27.5631C9.20183 29.3729 8.72488 30.5667 7.77094 31.1443L20.4019 23.7506C21.3559 23.173 21.8328 21.9792 21.8328 20.1694V7.86577C21.8328 6.82602 21.9891 6.19544 22.3016 5.97403L9.67056 13.3677Z" fill="#6580E1" fill-opacity="0.6"/>
<path fill-rule="evenodd" clip-rule="evenodd" d="M7.77094 31.1443C6.83348 31.7124 5.76445 31.7798 4.56384 31.3465L17.1948 23.9529C18.3955 24.3861 19.4645 24.3187 20.4019 23.7506L7.77094 31.1443Z" fill="#6580E1" fill-opacity="0.6"/>
<path fill-rule="evenodd" clip-rule="evenodd" d="M4.56384 31.3465C5.17237 31.8182 5.748 32.3863 6.29074 33.0504C6.84993 33.7052 7.3351 34.4416 7.74626 35.2599C8.17392 36.0686 8.51925 36.9254 8.78236 37.8303C9.06201 38.7451 9.20183 39.6355 9.20183 40.502V52.8056C9.20183 53.8261 9.35808 54.63 9.67057 55.2172C9.99948 55.8332 10.5997 56.3965 11.4714 56.9067L15.2707 59.1307V64.4738L27.9017 57.0801V51.737L24.1024 49.513C23.2307 49.0028 22.6305 48.4395 22.3016 47.8235C21.9891 47.2363 21.8328 46.4324 21.8328 45.4119V33.1083C21.8328 32.2418 21.693 31.3514 21.4134 30.4366C21.1503 29.5317 20.8049 28.6749 20.3773 27.8662C19.9661 27.0479 19.4809 26.3115 18.9217 25.6567C18.379 24.9926 17.8034 24.4245 17.1948 23.9528L4.56384 31.3465Z" fill="#6580E1" fill-opacity="0.6"/>
<path d="M15.2707 64.4738L11.4715 62.2498C10.4683 61.6626 9.53905 60.9164 8.6838 60.0115C7.84504 59.1354 7.12139 58.1535 6.51286 57.0656C5.92078 55.9873 5.45206 54.8562 5.10668 53.672C4.77774 52.4974 4.61329 51.3134 4.61329 50.1196V37.816C4.61329 36.2372 4.22679 34.9904 3.4538 34.0757C2.6808 33.1419 1.52954 32.2274 0 31.3321V25.9601C1.52954 26.8554 2.6808 27.3078 3.4538 27.3174C4.22679 27.3078 4.61329 26.4943 4.61329 24.877V12.5734C4.61329 11.3796 4.77774 10.388 5.10668 9.59859C5.45206 8.81879 5.92078 8.23634 6.51286 7.85125C7.12139 7.47579 7.84504 7.33138 8.6838 7.41801C9.53905 7.49505 10.4683 7.82721 11.4715 8.41441L15.2707 10.6384V16.0103L11.4715 13.7864C10.5998 13.2762 9.99958 13.1366 9.67066 13.3677C9.35817 13.5891 9.20193 14.2197 9.20193 15.2594V27.563C9.20193 29.3729 8.72498 30.5667 7.77104 31.1442C6.83358 31.7124 5.76454 31.7797 4.56394 31.3465C5.17246 31.8182 5.74809 32.3862 6.29083 33.0504C6.85002 33.7051 7.33519 34.4416 7.74636 35.2599C8.17402 36.0686 8.51935 36.9254 8.78245 37.8303C9.0621 38.7451 9.20193 39.6355 9.20193 40.502V52.8056C9.20193 53.8261 9.35817 54.63 9.67066 55.2172C9.99958 55.8332 10.5998 56.3965 11.4715 56.9067L15.2707 59.1307V64.4738Z" fill="white"/>
<path fill-rule="evenodd" clip-rule="evenodd" d="M23.1229 68.3872L26.9221 70.6111C27.7415 71.0907 28.3138 71.2385 28.6391 71.0546L41.2701 63.6609C40.9448 63.8448 40.3725 63.697 39.5531 63.2174L35.7539 60.9935L23.1229 68.3872Z" fill="#6580E1" fill-opacity="0.6"/>
<path fill-rule="evenodd" clip-rule="evenodd" d="M28.639 71.0547C28.6598 71.0429 28.6796 71.0298 28.6983 71.0154L41.3293 63.6217C41.3106 63.6361 41.2908 63.6492 41.27 63.661L28.639 71.0547Z" fill="#6580E1" fill-opacity="0.6"/>
<path fill-rule="evenodd" clip-rule="evenodd" d="M28.6983 71.0154C29.0272 70.8037 29.1917 70.1875 29.1917 69.167V56.7478C29.1917 55.8814 29.3233 55.1497 29.5864 54.5528C29.866 53.9656 30.2114 53.5131 30.6226 53.1954C30.6995 53.1365 30.7784 53.0828 30.8591 53.0341L43.4901 45.6404C43.4094 45.6891 43.3305 45.7428 43.2536 45.8017C42.8424 46.1194 42.497 46.5719 42.2174 47.1591C41.9543 47.756 41.8227 48.4877 41.8227 49.3541V61.7733C41.8227 62.7938 41.6582 63.41 41.3293 63.6217L28.6983 71.0154Z" fill="#6580E1" fill-opacity="0.6"/>
<path fill-rule="evenodd" clip-rule="evenodd" d="M30.8591 53.0342C31.2268 52.8127 31.6331 52.6979 32.0781 52.69C32.6373 52.6707 33.2212 52.7815 33.8297 53.0222L46.4607 45.6285C45.8523 45.3878 45.2683 45.277 44.7092 45.2963C44.2641 45.3042 43.8578 45.419 43.4901 45.6405L30.8591 53.0342Z" fill="#6580E1" fill-opacity="0.6"/>
<path fill-rule="evenodd" clip-rule="evenodd" d="M33.8296 53.0222C32.6126 52.0402 31.5354 50.7164 30.5979 49.0509C29.6605 47.3662 29.1917 45.6188 29.1917 43.8089V31.5053C29.1917 30.4656 29.0273 29.6665 28.6983 29.1081C28.3858 28.5402 27.7938 28.001 26.9221 27.4908L23.1229 25.2669V19.8949L35.7539 12.5012V17.8732L39.5531 20.0971C40.4248 20.6073 41.0169 21.1465 41.3293 21.7144C41.6583 22.2728 41.8227 23.0719 41.8227 24.1116V36.4152C41.8227 38.2251 42.2915 39.9725 43.2289 41.6572C44.1664 43.3227 45.2436 44.6465 46.4606 45.6285L33.8296 53.0222Z" fill="#6580E1" fill-opacity="0.6"/>
<path fill-rule="evenodd" clip-rule="evenodd" d="M23.1229 19.8949L26.9221 22.1188C27.9253 22.7061 28.8463 23.4473 29.6851 24.3427C30.5239 25.2188 31.2476 26.1911 31.8561 27.2597C32.4646 28.3283 32.9333 29.4499 33.2622 30.6244C33.6076 31.8086 33.7804 32.9976 33.7804 34.1913V46.4949C33.7804 48.1123 34.1669 49.3783 34.9398 50.2928C35.7128 51.1882 36.8559 52.0787 38.369 52.9644V58.3363L51 50.9426V45.5707C49.4869 44.685 48.3438 43.7945 47.5708 42.8991C46.7979 41.9846 46.4114 40.7186 46.4114 39.1012V26.7976C46.4114 25.6039 46.2386 24.4149 45.8933 23.2307C45.5643 22.0562 45.0956 20.9346 44.4871 19.866C43.8786 18.7974 43.1549 17.8251 42.3161 16.949C41.4774 16.0536 40.5563 15.3124 39.5531 14.7251L35.7539 12.5012L23.1229 19.8949Z" fill="#6580E1" fill-opacity="0.6"/>
<path fill-rule="evenodd" clip-rule="evenodd" d="M38.369 58.3363C36.8559 57.4506 35.7128 57.0222 34.9398 57.0511C34.7852 57.053 34.6461 57.0863 34.5224 57.151L47.1534 49.7573C47.2771 49.6926 47.4162 49.6593 47.5708 49.6574C48.3438 49.6285 49.4869 50.0569 51 50.9426L38.369 58.3363Z" fill="#6580E1" fill-opacity="0.6"/>
<path fill-rule="evenodd" clip-rule="evenodd" d="M34.5225 57.151C34.0278 57.4098 33.7804 58.1708 33.7804 59.4338V71.853C33.7804 73.0468 33.6076 74.0334 33.2623 74.8133C32.9334 75.6028 32.4647 76.1852 31.8561 76.5607L44.4871 69.167C45.0957 68.7915 45.5644 68.2091 45.8933 67.4196C46.2387 66.6397 46.4114 65.6531 46.4114 64.4593V52.0401C46.4114 50.7771 46.6588 50.0161 47.1535 49.7573L34.5225 57.151Z" fill="#6580E1" fill-opacity="0.6"/>
<path fill-rule="evenodd" clip-rule="evenodd" d="M31.8561 76.5607C31.8439 76.5682 31.8317 76.5756 31.8195 76.5829L44.4505 69.1892C44.4627 69.1819 44.4749 69.1745 44.4871 69.167L31.8561 76.5607Z" fill="#6580E1" fill-opacity="0.6"/>
<path fill-rule="evenodd" clip-rule="evenodd" d="M31.8194 76.5829C31.2186 76.9414 30.5071 77.0688 29.6851 76.965C28.8463 76.8783 27.9253 76.5414 26.9221 75.9542L23.1229 73.7303V68.3872L35.7539 60.9935V66.3366L39.5531 68.5605C40.5563 69.1477 41.4774 69.4846 42.3161 69.5713C43.1381 69.6751 43.8496 69.5477 44.4504 69.1892L31.8194 76.5829Z" fill="#6580E1" fill-opacity="0.6"/>
<path d="M23.1229 68.3872L26.9221 70.6111C27.7938 71.1214 28.3858 71.256 28.6983 71.0154C29.0273 70.8037 29.1917 70.1875 29.1917 69.167V56.7478C29.1917 55.8814 29.3233 55.1497 29.5865 54.5529C29.866 53.9656 30.2114 53.5132 30.6226 53.1955C31.0502 52.8682 31.5354 52.6997 32.0781 52.69C32.6373 52.6707 33.2212 52.7815 33.8296 53.0222C32.6126 52.0402 31.5354 50.7164 30.5979 49.0509C29.6605 47.3662 29.1917 45.6188 29.1917 43.8089V31.5053C29.1917 30.4656 29.0273 29.6665 28.6983 29.1082C28.3858 28.5402 27.7938 28.001 26.9221 27.4908L23.1229 25.2669V19.8949L26.9221 22.1188C27.9253 22.7061 28.8463 23.4474 29.6851 24.3427C30.5239 25.2188 31.2476 26.1911 31.8561 27.2597C32.4646 28.3284 32.9333 29.4499 33.2622 30.6244C33.6076 31.8086 33.7804 32.9976 33.7804 34.1913V46.4949C33.7804 48.1123 34.1669 49.3783 34.9398 50.2928C35.7128 51.1882 36.8559 52.0787 38.369 52.9644V58.3363C36.8559 57.4506 35.7128 57.0222 34.9398 57.0511C34.1669 57.0608 33.7804 57.855 33.7804 59.4338V71.853C33.7804 73.0468 33.6076 74.0334 33.2622 74.8133C32.9333 75.6028 32.4646 76.1852 31.8561 76.5607C31.2476 76.9362 30.5239 77.071 29.6851 76.965C28.8463 76.8783 27.9253 76.5415 26.9221 75.9542L23.1229 73.7304V68.3872Z" fill="white"/>
<path d="M83.8711 30.1289H75.8828V53H69.5547V30.1289H61.6055V24.9922H83.8711V30.1289ZM101.723 44.7578H88.6758C88.8841 47.6615 90.7135 49.1133 94.1641 49.1133C96.3646 49.1133 98.2982 48.5924 99.9648 47.5508V52.0039C98.1159 52.9935 95.7135 53.4883 92.7578 53.4883C89.5286 53.4883 87.0221 52.5964 85.2383 50.8125C83.4544 49.0156 82.5625 46.5156 82.5625 43.3125C82.5625 39.9922 83.526 37.362 85.4531 35.4219C87.3802 33.4818 89.75 32.5117 92.5625 32.5117C95.4792 32.5117 97.7318 33.3776 99.3203 35.1094C100.922 36.8411 101.723 39.1914 101.723 42.1602V44.7578ZM96 40.9688C96 38.1042 94.8411 36.6719 92.5234 36.6719C91.5339 36.6719 90.6745 37.082 89.9453 37.9023C89.2292 38.7227 88.793 39.7448 88.6367 40.9688H96ZM124.711 33L118.109 42.6875L124.672 53H117.562L114.672 47.6094C114.438 47.1797 114.158 46.5742 113.832 45.793H113.754C113.559 46.3398 113.292 46.9258 112.953 47.5508L110.043 53H102.953L109.711 43.0391L103.363 33H110.512L113.363 38.6055C113.741 39.3477 114.008 39.9727 114.164 40.4805H114.242C114.451 39.8685 114.73 39.2305 115.082 38.5664L117.992 33H124.711ZM146.781 53H140.59V44.6406H133.676V53H127.504V33H133.676V40.4023H140.59V33H146.781V53ZM161.527 53.4883C158.194 53.4883 155.57 52.5573 153.656 50.6953C151.755 48.8203 150.805 46.2812 150.805 43.0781C150.805 39.7708 151.794 37.1862 153.773 35.3242C155.753 33.4492 158.428 32.5117 161.801 32.5117C165.121 32.5117 167.725 33.4492 169.613 35.3242C171.501 37.1862 172.445 39.6536 172.445 42.7266C172.445 46.0469 171.469 48.6706 169.516 50.5977C167.576 52.5247 164.913 53.4883 161.527 53.4883ZM161.684 37.2383C160.225 37.2383 159.092 37.7396 158.285 38.7422C157.478 39.7448 157.074 41.1641 157.074 43C157.074 46.8411 158.624 48.7617 161.723 48.7617C164.678 48.7617 166.156 46.7891 166.156 42.8438C166.156 39.1068 164.665 37.2383 161.684 37.2383ZM195.375 53H189.164V37.3555H185.766C185.049 43.4102 183.975 47.5703 182.543 49.8359C181.124 52.1016 179.132 53.2344 176.566 53.2344C175.681 53.2344 174.88 53.1042 174.164 52.8438V48.6445C174.62 48.8529 175.102 48.957 175.609 48.957C176.833 48.957 177.849 47.8177 178.656 45.5391C179.464 43.2604 180.193 39.0807 180.844 33H195.375V53ZM217.23 53H211.391V50.1289H211.312C209.971 52.3685 207.986 53.4883 205.355 53.4883C203.415 53.4883 201.885 52.9414 200.766 51.8477C199.659 50.7409 199.105 49.2695 199.105 47.4336C199.105 43.5534 201.404 41.3138 206 40.7148L211.43 39.9922C211.43 37.8047 210.245 36.7109 207.875 36.7109C205.492 36.7109 203.227 37.4206 201.078 38.8398V34.1914C201.938 33.7487 203.109 33.3581 204.594 33.0195C206.091 32.681 207.452 32.5117 208.676 32.5117C214.379 32.5117 217.23 35.3568 217.23 41.0469V53ZM211.43 44.875V43.5273L207.797 43.9961C205.792 44.2565 204.789 45.1615 204.789 46.7109C204.789 47.4141 205.03 47.9935 205.512 48.4492C206.007 48.8919 206.671 49.1133 207.504 49.1133C208.663 49.1133 209.607 48.7161 210.336 47.9219C211.065 47.1146 211.43 46.099 211.43 44.875ZM241.996 53H236.391V39.9141C235.883 40.9427 235.336 41.8932 234.75 42.7656L227.953 53H222.113V33H227.758V45.6758C228.174 44.8034 228.63 43.9896 229.125 43.2344L235.922 33H241.996V53ZM240.551 23.4492C240.316 25.5195 239.424 27.1667 237.875 28.3906C236.326 29.6146 234.405 30.2266 232.113 30.2266C229.783 30.2266 227.842 29.6146 226.293 28.3906C224.743 27.1667 223.91 25.5195 223.793 23.4492H228.285C228.35 24.4518 228.76 25.2786 229.516 25.9297C230.271 26.5677 231.163 26.8867 232.191 26.8867C233.207 26.8867 234.086 26.5612 234.828 25.9102C235.57 25.2591 235.98 24.4388 236.059 23.4492H240.551ZM266.508 53H260.316V44.6406H253.402V53H247.23V33H253.402V40.4023H260.316V33H266.508V53Z" fill="white"/>
</svg>
