<svg width="205" height="127" viewBox="0 0 205 127" fill="none" xmlns="http://www.w3.org/2000/svg">
<path fill-rule="evenodd" clip-rule="evenodd" d="M30.7904 101.905L25.1203 98.6315C23.6231 97.7672 22.2363 96.6687 20.9599 95.3367C19.7081 94.0471 18.6281 92.6017 17.7199 91.0003C16.8363 89.4131 16.1368 87.748 15.6213 86.0049C15.1304 84.2759 14.885 82.533 14.885 80.7758V62.665C14.885 60.3409 14.3081 58.5058 13.1545 57.1593C12.0009 55.7847 10.2827 54.4386 8 53.1207V45.2131L26.8508 34.3297V42.2372C29.1335 43.5551 30.8517 44.9012 32.0053 46.2758C33.1589 47.6223 33.7357 49.4574 33.7357 51.7815V69.8923C33.7357 71.6495 33.9812 73.3924 34.4721 75.1214C34.9875 76.8645 35.6871 78.5296 36.5707 80.1168C37.4789 81.7182 38.5589 83.1636 39.8107 84.4532C41.087 85.7852 42.4739 86.8837 43.971 87.748L49.6411 91.0217L30.7904 101.905Z" fill="#6580E1" fill-opacity="0.6"/>
<path fill-rule="evenodd" clip-rule="evenodd" d="M8 45.2131C10.2827 46.5311 12.0009 47.197 13.1545 47.2111C13.3852 47.2083 13.5929 47.1581 13.7775 47.0606L32.6282 36.1771C32.4437 36.2746 32.236 36.3248 32.0053 36.3276C30.8517 36.3135 29.1335 35.6476 26.8508 34.3297L8 45.2131Z" fill="#6580E1" fill-opacity="0.6"/>
<path fill-rule="evenodd" clip-rule="evenodd" d="M13.7775 47.0607C14.5158 46.6707 14.885 45.5235 14.885 43.619V25.5081C14.885 23.7508 15.1304 22.2912 15.6213 21.1292C16.1368 19.9813 16.8363 19.1239 17.7199 18.5571L36.5707 7.67358C35.6871 8.24043 34.9875 9.0978 34.4721 10.2457C33.9812 11.4077 33.7357 12.8673 33.7357 14.6246V32.7355C33.7357 34.64 33.3666 35.7872 32.6282 36.1772L13.7775 47.0607Z" fill="#6580E1" fill-opacity="0.6"/>
<path fill-rule="evenodd" clip-rule="evenodd" d="M17.7199 18.5571C17.7381 18.546 17.7563 18.5351 17.7746 18.5243L36.6254 7.64081C36.6071 7.65159 36.5889 7.66251 36.5707 7.67356L17.7199 18.5571Z" fill="#6580E1" fill-opacity="0.6"/>
<path fill-rule="evenodd" clip-rule="evenodd" d="M17.7746 18.5243C18.6713 17.996 19.7331 17.7944 20.9598 17.9194C22.2362 18.0328 23.6231 18.5217 25.1202 19.3861L30.7903 22.6597V30.5672L49.6411 19.6837V11.7762L43.971 8.50257C42.4738 7.6382 41.087 7.14927 39.8106 7.03586C38.5838 6.91089 37.5221 7.11255 36.6253 7.64084L17.7746 18.5243Z" fill="#6580E1" fill-opacity="0.6"/>
<path fill-rule="evenodd" clip-rule="evenodd" d="M30.7904 30.5672L25.1203 27.2935C23.8714 26.5725 22.9959 26.3544 22.4936 26.639L41.3444 15.7555C41.8467 15.4709 42.7222 15.689 43.9711 16.41L49.6412 19.6837L30.7904 30.5672Z" fill="#6580E1" fill-opacity="0.6"/>
<path fill-rule="evenodd" clip-rule="evenodd" d="M22.4936 26.6391C22.4727 26.6509 22.4524 26.6636 22.4327 26.6773L41.2835 15.7938C41.3031 15.7801 41.3234 15.7674 41.3444 15.7556L22.4936 26.6391Z" fill="#6580E1" fill-opacity="0.6"/>
<path fill-rule="evenodd" clip-rule="evenodd" d="M22.4326 26.6773C21.9663 27.0032 21.7331 27.9314 21.7331 29.4619V47.5728C21.7331 50.2369 21.0213 51.9941 19.5976 52.8443L38.4484 41.9608C39.8721 41.1106 40.5839 39.3534 40.5839 36.6893V18.5784C40.5839 17.0479 40.817 16.1197 41.2834 15.7938L22.4326 26.6773Z" fill="#6580E1" fill-opacity="0.6"/>
<path fill-rule="evenodd" clip-rule="evenodd" d="M19.5976 52.8443C18.1985 53.6806 16.603 53.7797 14.8112 53.142L33.662 42.2585C35.4538 42.8962 37.0492 42.7971 38.4483 41.9608L19.5976 52.8443Z" fill="#6580E1" fill-opacity="0.6"/>
<path fill-rule="evenodd" clip-rule="evenodd" d="M14.8112 53.142C15.7194 53.8363 16.5785 54.6725 17.3885 55.6502C18.223 56.6139 18.9471 57.698 19.5607 58.9025C20.199 60.0929 20.7144 61.3541 21.107 62.6861C21.5244 64.0326 21.7331 65.3433 21.7331 66.6189V84.7297C21.7331 86.2318 21.9662 87.4152 22.4326 88.2796C22.9235 89.1864 23.8193 90.0155 25.1202 90.7665L30.7903 94.0402V101.905L49.6411 91.0218V83.1567L43.9709 79.883C42.67 79.132 41.7743 78.3029 41.2834 77.3961C40.817 76.5317 40.5838 75.3483 40.5838 73.8462V55.7354C40.5838 54.4598 40.3751 53.1491 39.9578 51.8026C39.5651 50.4706 39.0497 49.2094 38.4115 48.019C37.7979 46.8145 37.0738 45.7304 36.2393 44.7667C35.4293 43.789 34.5702 42.9528 33.662 42.2585L14.8112 53.142Z" fill="#6580E1" fill-opacity="0.6"/>
<path d="M30.7904 101.905L25.1203 98.6316C23.6231 97.7672 22.2363 96.6687 20.9599 95.3367C19.7081 94.0472 18.6281 92.6017 17.7199 91.0003C16.8363 89.4131 16.1368 87.7481 15.6213 86.0049C15.1304 84.276 14.885 82.5331 14.885 80.7758V62.665C14.885 60.341 14.3081 58.5058 13.1545 57.1593C12.0009 55.7848 10.2827 54.4386 8 53.1207V45.2132C10.2827 46.5311 12.0009 47.197 13.1545 47.2111C14.3081 47.197 14.885 45.9996 14.885 43.6189V25.508C14.885 23.7508 15.1304 22.2911 15.6213 21.1291C16.1368 19.9812 16.8363 19.1239 17.7199 18.557C18.6281 18.0043 19.7081 17.7918 20.9599 17.9193C22.2363 18.0327 23.6231 18.5216 25.1203 19.386L30.7904 22.6596V30.5672L25.1203 27.2935C23.8194 26.5425 22.9236 26.337 22.4327 26.6772C21.9663 27.0031 21.7331 27.9313 21.7331 29.4618V47.5727C21.7331 50.2368 21.0213 51.994 19.5977 52.8442C18.1986 53.6805 16.6031 53.7796 14.8113 53.1419C15.7195 53.8362 16.5786 54.6724 17.3886 55.6501C18.2231 56.6138 18.9472 57.698 19.5608 58.9025C20.1991 60.0929 20.7144 61.354 21.1071 62.6861C21.5245 64.0326 21.7331 65.3433 21.7331 66.6188V84.7296C21.7331 86.2318 21.9663 87.4151 22.4327 88.2795C22.9236 89.1863 23.8194 90.0154 25.1203 90.7665L30.7904 94.0401V101.905Z" fill="white"/>
<path fill-rule="evenodd" clip-rule="evenodd" d="M42.5092 107.666L48.1791 110.939C49.402 111.645 50.2561 111.863 50.7416 111.592L69.5923 100.709C69.1069 100.979 68.2527 100.762 67.0299 100.056L61.3599 96.7822L42.5092 107.666Z" fill="#6580E1" fill-opacity="0.6"/>
<path fill-rule="evenodd" clip-rule="evenodd" d="M50.7415 111.592C50.7725 111.575 50.802 111.556 50.83 111.534L69.6807 100.651C69.6528 100.672 69.6233 100.691 69.5923 100.709L50.7415 111.592Z" fill="#6580E1" fill-opacity="0.6"/>
<path fill-rule="evenodd" clip-rule="evenodd" d="M50.83 111.534C51.3209 111.223 51.5664 110.316 51.5664 108.814V90.5326C51.5664 89.2573 51.7627 88.1802 52.1555 87.3016C52.5727 86.4372 53.0882 85.7712 53.7018 85.3036C53.8167 85.2168 53.9343 85.1377 54.0548 85.0661L72.9056 74.1826C72.7851 74.2542 72.6675 74.3333 72.5526 74.4201C71.939 74.8877 71.4235 75.5537 71.0062 76.4181C70.6135 77.2967 70.4172 78.3738 70.4172 79.6491V97.9301C70.4172 99.4323 70.1717 100.339 69.6808 100.651L50.83 111.534Z" fill="#6580E1" fill-opacity="0.6"/>
<path fill-rule="evenodd" clip-rule="evenodd" d="M54.0548 85.0661C54.6035 84.7401 55.2099 84.5712 55.8741 84.5595C56.7086 84.5311 57.5801 84.6942 58.4881 85.0485L77.3389 74.165C76.4308 73.8107 75.5594 73.6476 74.7249 73.676C74.0607 73.6877 73.4542 73.8566 72.9056 74.1826L54.0548 85.0661Z" fill="#6580E1" fill-opacity="0.6"/>
<path fill-rule="evenodd" clip-rule="evenodd" d="M58.4881 85.0485C56.6718 83.603 55.0641 81.6544 53.665 79.2028C52.2659 76.7229 51.5664 74.1508 51.5664 71.4865V53.3757C51.5664 51.8453 51.3209 50.669 50.83 49.8471C50.3637 49.011 49.48 48.2174 48.1791 47.4664L42.5092 44.1928V36.2853L61.3599 25.4018V33.3093L67.0299 36.5829C68.3308 37.3339 69.2144 38.1275 69.6808 38.9636C70.1717 39.7855 70.4171 40.9618 70.4171 42.4922V60.603C70.4171 63.2673 71.1167 65.8394 72.5158 68.3193C73.9148 70.7709 75.5226 72.7195 77.3388 74.165L58.4881 85.0485Z" fill="#6580E1" fill-opacity="0.6"/>
<path fill-rule="evenodd" clip-rule="evenodd" d="M42.5092 36.2853L48.1791 39.5588C49.6764 40.4233 51.0509 41.5144 52.3027 42.8324C53.5545 44.1219 54.6345 45.5532 55.5427 47.1262C56.4509 48.6992 57.1504 50.3502 57.6413 52.0791C58.1567 53.8221 58.4146 55.5723 58.4146 57.3295V75.4403C58.4146 77.8212 58.9914 79.6846 60.1449 81.0308C61.2985 82.3488 63.0045 83.6596 65.2627 84.9634V92.8709L84.1134 81.9874V74.0799C81.8553 72.7761 80.1493 71.4653 78.9956 70.1473C77.8422 68.8011 77.2653 66.9377 77.2653 64.5568V46.446C77.2653 44.6888 77.0074 42.9386 76.4921 41.1956C76.0012 39.4667 75.3016 37.8157 74.3935 36.2427C73.4853 34.6697 72.4053 33.2384 71.1535 31.9489C69.9017 30.6309 68.5271 29.5398 67.0299 28.6753L61.3599 25.4018L42.5092 36.2853Z" fill="#6580E1" fill-opacity="0.6"/>
<path fill-rule="evenodd" clip-rule="evenodd" d="M65.2627 92.8709C63.0046 91.5671 61.2986 90.9365 60.1449 90.979C59.9142 90.9818 59.7066 91.0309 59.522 91.1261L78.3728 80.2426C78.5574 80.1474 78.765 80.0983 78.9957 80.0955C80.1494 80.053 81.8554 80.6836 84.1135 81.9874L65.2627 92.8709Z" fill="#6580E1" fill-opacity="0.6"/>
<path fill-rule="evenodd" clip-rule="evenodd" d="M59.5221 91.1262C58.7838 91.5071 58.4146 92.6272 58.4146 94.4865V112.767C58.4146 114.525 58.1568 115.977 57.6414 117.125C57.1505 118.287 56.451 119.144 55.5428 119.697L74.3936 108.814C75.3017 108.261 76.0013 107.404 76.4922 106.242C77.0075 105.094 77.2654 103.641 77.2654 101.884V83.603C77.2654 81.7437 77.6346 80.6236 78.3728 80.2427L59.5221 91.1262Z" fill="#6580E1" fill-opacity="0.6"/>
<path fill-rule="evenodd" clip-rule="evenodd" d="M55.5427 119.697C55.5246 119.708 55.5063 119.719 55.488 119.73L74.3388 108.846C74.3571 108.836 74.3753 108.825 74.3935 108.814L55.5427 119.697Z" fill="#6580E1" fill-opacity="0.6"/>
<path fill-rule="evenodd" clip-rule="evenodd" d="M55.488 119.73C54.5913 120.258 53.5295 120.445 52.3027 120.292C51.0509 120.165 49.6764 119.669 48.1791 118.804L42.5092 115.531V107.666L61.3599 96.7822V104.647L67.0299 107.921C68.5271 108.785 69.9017 109.281 71.1535 109.409C72.3803 109.562 73.442 109.374 74.3388 108.846L55.488 119.73Z" fill="#6580E1" fill-opacity="0.6"/>
<path d="M42.5092 107.666L48.1791 110.939C49.48 111.69 50.3637 111.889 50.83 111.534C51.3209 111.223 51.5664 110.316 51.5664 108.814V90.5326C51.5664 89.2573 51.7627 88.1802 52.1555 87.3016C52.5727 86.4372 53.0882 85.7712 53.7018 85.3036C54.34 84.8218 55.0641 84.5738 55.8741 84.5595C56.7086 84.5311 57.58 84.6942 58.4881 85.0485C56.6718 83.603 55.0641 81.6544 53.665 79.2028C52.2659 76.7229 51.5664 74.1508 51.5664 71.4865V53.3758C51.5664 51.8453 51.3209 50.6691 50.83 49.8471C50.3637 49.011 49.48 48.2174 48.1791 47.4664L42.5092 44.1928V36.2853L48.1791 39.5588C49.6764 40.4233 51.0509 41.5144 52.3027 42.8324C53.5545 44.122 54.6345 45.5532 55.5427 47.1262C56.4509 48.6992 57.1504 50.3502 57.6413 52.0791C58.1567 53.8221 58.4146 55.5723 58.4146 57.3296V75.4403C58.4146 77.8212 58.9914 79.6847 60.1449 81.0308C61.2985 82.3488 63.0045 83.6596 65.2627 84.9634V92.8709C63.0045 91.5672 61.2985 90.9366 60.1449 90.979C58.9914 90.9933 58.4146 92.1624 58.4146 94.4864V112.767C58.4146 114.525 58.1567 115.977 57.6413 117.125C57.1504 118.287 56.4509 119.144 55.5427 119.697C54.6345 120.25 53.5545 120.448 52.3027 120.292C51.0509 120.165 49.6764 119.669 48.1791 118.804L42.5092 115.531V107.666Z" fill="white"/>
<path d="M106.871 41.1289H98.8828V64H92.5547V41.1289H84.6055V35.9922H106.871V41.1289ZM124.723 55.7578H111.676C111.884 58.6615 113.714 60.1133 117.164 60.1133C119.365 60.1133 121.298 59.5924 122.965 58.5508V63.0039C121.116 63.9935 118.714 64.4883 115.758 64.4883C112.529 64.4883 110.022 63.5964 108.238 61.8125C106.454 60.0156 105.562 57.5156 105.562 54.3125C105.562 50.9922 106.526 48.362 108.453 46.4219C110.38 44.4818 112.75 43.5117 115.562 43.5117C118.479 43.5117 120.732 44.3776 122.32 46.1094C123.922 47.8411 124.723 50.1914 124.723 53.1602V55.7578ZM119 51.9688C119 49.1042 117.841 47.6719 115.523 47.6719C114.534 47.6719 113.674 48.082 112.945 48.9023C112.229 49.7227 111.793 50.7448 111.637 51.9688H119ZM147.711 44L141.109 53.6875L147.672 64H140.562L137.672 58.6094C137.438 58.1797 137.158 57.5742 136.832 56.793H136.754C136.559 57.3398 136.292 57.9258 135.953 58.5508L133.043 64H125.953L132.711 54.0391L126.363 44H133.512L136.363 49.6055C136.741 50.3477 137.008 50.9727 137.164 51.4805H137.242C137.451 50.8685 137.73 50.2305 138.082 49.5664L140.992 44H147.711ZM169.781 64H163.59V55.6406H156.676V64H150.504V44H156.676V51.4023H163.59V44H169.781V64ZM184.527 64.4883C181.194 64.4883 178.57 63.5573 176.656 61.6953C174.755 59.8203 173.805 57.2812 173.805 54.0781C173.805 50.7708 174.794 48.1862 176.773 46.3242C178.753 44.4492 181.428 43.5117 184.801 43.5117C188.121 43.5117 190.725 44.4492 192.613 46.3242C194.501 48.1862 195.445 50.6536 195.445 53.7266C195.445 57.0469 194.469 59.6706 192.516 61.5977C190.576 63.5247 187.913 64.4883 184.527 64.4883ZM184.684 48.2383C183.225 48.2383 182.092 48.7396 181.285 49.7422C180.478 50.7448 180.074 52.1641 180.074 54C180.074 57.8411 181.624 59.7617 184.723 59.7617C187.678 59.7617 189.156 57.7891 189.156 53.8438C189.156 50.1068 187.665 48.2383 184.684 48.2383Z" fill="white"/>
<path d="M109.996 104H103.688V81.2461H98.082C96.5716 91.9753 95.1589 98.5182 93.8438 100.875C92.5286 103.219 90.5299 104.391 87.8477 104.391C86.7148 104.391 85.582 104.208 84.4492 103.844V98.8047C85.2044 99.0651 85.8555 99.1953 86.4023 99.1953C86.9362 99.1953 87.4049 99.026 87.8086 98.6875C88.2253 98.349 88.681 97.4505 89.1758 95.9922C89.6706 94.5339 90.263 92.0208 90.9531 88.4531C91.6562 84.8724 92.3268 80.7188 92.9648 75.9922H109.996V104ZM132.457 104H126.617V101.129H126.539C125.198 103.368 123.212 104.488 120.582 104.488C118.642 104.488 117.112 103.941 115.992 102.848C114.885 101.741 114.332 100.27 114.332 98.4336C114.332 94.5534 116.63 92.3138 121.227 91.7148L126.656 90.9922C126.656 88.8047 125.471 87.7109 123.102 87.7109C120.719 87.7109 118.453 88.4206 116.305 89.8398V85.1914C117.164 84.7487 118.336 84.3581 119.82 84.0195C121.318 83.681 122.678 83.5117 123.902 83.5117C129.605 83.5117 132.457 86.3568 132.457 92.0469V104ZM126.656 95.875V94.5273L123.023 94.9961C121.018 95.2565 120.016 96.1615 120.016 97.7109C120.016 98.4141 120.257 98.9935 120.738 99.4492C121.233 99.8919 121.897 100.113 122.73 100.113C123.889 100.113 124.833 99.7161 125.562 98.9219C126.292 98.1146 126.656 97.099 126.656 95.875ZM157.223 104H151.617V90.9141C151.109 91.9427 150.562 92.8932 149.977 93.7656L143.18 104H137.34V84H142.984V96.6758C143.401 95.8034 143.857 94.9896 144.352 94.2344L151.148 84H157.223V104ZM155.777 74.4492C155.543 76.5195 154.651 78.1667 153.102 79.3906C151.552 80.6146 149.632 81.2266 147.34 81.2266C145.009 81.2266 143.069 80.6146 141.52 79.3906C139.97 78.1667 139.137 76.5195 139.02 74.4492H143.512C143.577 75.4518 143.987 76.2786 144.742 76.9297C145.497 77.5677 146.389 77.8867 147.418 77.8867C148.434 77.8867 149.312 77.5612 150.055 76.9102C150.797 76.2591 151.207 75.4388 151.285 74.4492H155.777ZM181.734 104H175.543V95.6406H168.629V104H162.457V84H168.629V91.4023H175.543V84H181.734V104Z" fill="white"/>
</svg>
