<svg width="77" height="114" viewBox="0 0 77 114" fill="none" xmlns="http://www.w3.org/2000/svg">
<path fill-rule="evenodd" clip-rule="evenodd" d="M22.7904 94.9052L17.1203 91.6315C15.6231 90.7672 14.2363 89.6687 12.9599 88.3367C11.7081 87.0471 10.6281 85.6017 9.71993 84.0003C8.8363 82.4131 8.13677 80.748 7.62131 79.0049C7.1304 77.2759 6.88496 75.533 6.88496 73.7758V55.665C6.88496 53.3409 6.30815 51.5058 5.15452 50.1593C4.00089 48.7847 2.28272 47.4386 0 46.1207V38.2131L18.8508 27.3297V35.2372C21.1335 36.5551 22.8517 37.9012 24.0053 39.2758C25.1589 40.6223 25.7357 42.4574 25.7357 44.7815V62.8923C25.7357 64.6495 25.9812 66.3924 26.4721 68.1214C26.9875 69.8645 27.6871 71.5296 28.5707 73.1168C29.4789 74.7182 30.5589 76.1636 31.8107 77.4532C33.087 78.7852 34.4739 79.8837 35.971 80.748L41.6411 84.0217L22.7904 94.9052Z" fill="#6580E1" fill-opacity="0.6"/>
<path fill-rule="evenodd" clip-rule="evenodd" d="M0 38.2131C2.28272 39.5311 4.00089 40.197 5.15452 40.2111C5.38524 40.2083 5.5929 40.1581 5.77748 40.0606L24.6282 29.1771C24.4437 29.2746 24.236 29.3248 24.0053 29.3276C22.8517 29.3135 21.1335 28.6476 18.8508 27.3297L0 38.2131Z" fill="#6580E1" fill-opacity="0.6"/>
<path fill-rule="evenodd" clip-rule="evenodd" d="M5.77747 40.0607C6.51579 39.6707 6.88495 38.5235 6.88495 36.619V18.5081C6.88495 16.7508 7.13039 15.2912 7.6213 14.1292C8.13675 12.9813 8.83629 12.1239 9.71992 11.5571L28.5707 0.673584C27.6871 1.24043 26.9875 2.0978 26.4721 3.24566C25.9812 4.40769 25.7357 5.86734 25.7357 7.62457V25.7355C25.7357 27.64 25.3666 28.7872 24.6282 29.1772L5.77747 40.0607Z" fill="#6580E1" fill-opacity="0.6"/>
<path fill-rule="evenodd" clip-rule="evenodd" d="M9.71997 11.5571C9.73813 11.546 9.75637 11.5351 9.77467 11.5243L28.6254 0.640808C28.6071 0.65159 28.5889 0.662507 28.5707 0.67356L9.71997 11.5571Z" fill="#6580E1" fill-opacity="0.6"/>
<path fill-rule="evenodd" clip-rule="evenodd" d="M9.77454 11.5243C10.6713 10.996 11.733 10.7944 12.9598 10.9194C14.2362 11.0328 15.623 11.5217 17.1202 12.3861L22.7903 15.6597V23.5672L41.6411 12.6837V4.77621L35.9709 1.50257C34.4738 0.638198 33.087 0.149267 31.8106 0.0358613C30.5838 -0.0891102 29.5221 0.112549 28.6253 0.640838L9.77454 11.5243Z" fill="#6580E1" fill-opacity="0.6"/>
<path fill-rule="evenodd" clip-rule="evenodd" d="M22.7904 23.5672L17.1203 20.2935C15.8714 19.5725 14.9959 19.3544 14.4936 19.639L33.3444 8.75549C33.8467 8.47086 34.7222 8.68901 35.9711 9.41004L41.6412 12.6837L22.7904 23.5672Z" fill="#6580E1" fill-opacity="0.6"/>
<path fill-rule="evenodd" clip-rule="evenodd" d="M14.4936 19.6391C14.4727 19.6509 14.4524 19.6636 14.4327 19.6773L33.2835 8.79375C33.3031 8.78015 33.3234 8.76741 33.3444 8.75555L14.4936 19.6391Z" fill="#6580E1" fill-opacity="0.6"/>
<path fill-rule="evenodd" clip-rule="evenodd" d="M14.4326 19.6773C13.9663 20.0032 13.7331 20.9314 13.7331 22.4619V40.5728C13.7331 43.2369 13.0213 44.9941 11.5976 45.8443V45.8443L30.4484 34.9608V34.9608C31.8721 34.1106 32.5839 32.3534 32.5839 29.6893V11.5784C32.5839 10.0479 32.817 9.11968 33.2834 8.79376L14.4326 19.6773Z" fill="#6580E1" fill-opacity="0.6"/>
<path fill-rule="evenodd" clip-rule="evenodd" d="M11.5976 45.8443C10.1985 46.6806 8.60302 46.7797 6.81122 46.142L25.662 35.2585C27.4538 35.8962 29.0492 35.7971 30.4483 34.9608L11.5976 45.8443Z" fill="#6580E1" fill-opacity="0.6"/>
<path fill-rule="evenodd" clip-rule="evenodd" d="M6.81122 46.142C7.71939 46.8363 8.57848 47.6725 9.38848 48.6502C10.223 49.6139 10.9471 50.698 11.5607 51.9025C12.199 53.0929 12.7144 54.3541 13.107 55.6861C13.5244 57.0326 13.7331 58.3433 13.7331 59.6189V77.7297C13.7331 79.2318 13.9662 80.4152 14.4326 81.2796C14.9235 82.1864 15.8193 83.0155 17.1202 83.7665L22.7903 87.0402V94.9053L41.6411 84.0218V76.1567L35.9709 72.883C34.67 72.132 33.7743 71.3029 33.2834 70.3961C32.817 69.5317 32.5838 68.3483 32.5838 66.8462V48.7354C32.5838 47.4598 32.3751 46.1491 31.9578 44.8026C31.5651 43.4706 31.0498 42.2094 30.4115 41.019C29.7979 39.8145 29.0738 38.7304 28.2393 37.7667C27.4293 36.789 26.5702 35.9528 25.662 35.2585L6.81122 46.142Z" fill="#6580E1" fill-opacity="0.6"/>
<path d="M22.7904 94.9052L17.1203 91.6316C15.6231 90.7672 14.2363 89.6687 12.9599 88.3367C11.7081 87.0472 10.6281 85.6017 9.71993 84.0003C8.8363 82.4131 8.13677 80.7481 7.62131 79.0049C7.1304 77.276 6.88496 75.5331 6.88496 73.7758V55.665C6.88496 53.341 6.30815 51.5058 5.15452 50.1593C4.00089 48.7848 2.28272 47.4386 0 46.1207V38.2132C2.28272 39.5311 4.00089 40.197 5.15452 40.2111C6.30815 40.197 6.88496 38.9996 6.88496 36.6189V18.508C6.88496 16.7508 7.1304 15.2911 7.62131 14.1291C8.13677 12.9812 8.8363 12.1239 9.71993 11.557C10.6281 11.0043 11.7081 10.7918 12.9599 10.9193C14.2363 11.0327 15.6231 11.5216 17.1203 12.386L22.7904 15.6596V23.5672L17.1203 20.2935C15.8194 19.5425 14.9236 19.337 14.4327 19.6772C13.9663 20.0031 13.7331 20.9313 13.7331 22.4618V40.5727C13.7331 43.2368 13.0213 44.994 11.5977 45.8442C10.1986 46.6805 8.60312 46.7796 6.81131 46.1419C7.71949 46.8362 8.57857 47.6724 9.38857 48.6501C10.2231 49.6138 10.9472 50.698 11.5608 51.9025C12.1991 53.0929 12.7144 54.354 13.1071 55.6861C13.5245 57.0326 13.7331 58.3433 13.7331 59.6188V77.7296C13.7331 79.2318 13.9663 80.4151 14.4327 81.2795C14.9236 82.1863 15.8194 83.0154 17.1203 83.7665L22.7904 87.0401V94.9052Z" fill="white"/>
<path fill-rule="evenodd" clip-rule="evenodd" d="M34.5092 100.666L40.1791 103.939C41.402 104.645 42.2561 104.863 42.7416 104.592L61.5923 93.7087C61.1069 93.9793 60.2527 93.7618 59.0299 93.0558L53.3599 89.7822L34.5092 100.666Z" fill="#6580E1" fill-opacity="0.6"/>
<path fill-rule="evenodd" clip-rule="evenodd" d="M42.7415 104.592C42.7725 104.575 42.802 104.556 42.83 104.534L61.6807 93.6509C61.6528 93.6722 61.6233 93.6915 61.5923 93.7087L42.7415 104.592Z" fill="#6580E1" fill-opacity="0.6"/>
<path fill-rule="evenodd" clip-rule="evenodd" d="M42.83 104.534C43.3209 104.223 43.5664 103.316 43.5664 101.814V83.5326C43.5664 82.2573 43.7627 81.1802 44.1555 80.3016C44.5727 79.4372 45.0882 78.7712 45.7018 78.3036C45.8167 78.2168 45.9343 78.1377 46.0548 78.0661L64.9056 67.1826C64.7851 67.2542 64.6675 67.3333 64.5526 67.4201C63.939 67.8877 63.4235 68.5537 63.0062 69.4181C62.6135 70.2967 62.4172 71.3738 62.4172 72.6491V90.9301C62.4172 92.4323 62.1717 93.3393 61.6808 93.651L42.83 104.534Z" fill="#6580E1" fill-opacity="0.6"/>
<path fill-rule="evenodd" clip-rule="evenodd" d="M46.0548 78.0661C46.6035 77.7401 47.2099 77.5712 47.8741 77.5595C48.7086 77.5311 49.5801 77.6942 50.4881 78.0485L69.3389 67.165C68.4308 66.8107 67.5594 66.6476 66.7249 66.676C66.0607 66.6877 65.4542 66.8566 64.9056 67.1826L46.0548 78.0661Z" fill="#6580E1" fill-opacity="0.6"/>
<path fill-rule="evenodd" clip-rule="evenodd" d="M50.4881 78.0485C48.6718 76.603 47.0641 74.6544 45.665 72.2028C44.2659 69.7229 43.5664 67.1508 43.5664 64.4865V46.3757C43.5664 44.8453 43.3209 43.669 42.83 42.8471C42.3637 42.011 41.48 41.2174 40.1791 40.4664L34.5092 37.1928V29.2853L53.3599 18.4018V26.3093L59.0299 29.5829C60.3308 30.3339 61.2144 31.1275 61.6808 31.9636C62.1717 32.7855 62.4171 33.9618 62.4171 35.4922V53.603C62.4171 56.2673 63.1167 58.8394 64.5158 61.3193C65.9148 63.7709 67.5226 65.7195 69.3388 67.165L50.4881 78.0485Z" fill="#6580E1" fill-opacity="0.6"/>
<path fill-rule="evenodd" clip-rule="evenodd" d="M34.5092 29.2853L40.1791 32.5588C41.6764 33.4233 43.0509 34.5144 44.3027 35.8324C45.5545 37.1219 46.6345 38.5532 47.5427 40.1262C48.4509 41.6992 49.1504 43.3502 49.6413 45.0791C50.1567 46.8221 50.4146 48.5723 50.4146 50.3295V68.4403C50.4146 70.8212 50.9914 72.6846 52.1449 74.0308C53.2985 75.3488 55.0045 76.6596 57.2627 77.9634V85.8709L76.1134 74.9874V67.0799C73.8553 65.7761 72.1493 64.4653 70.9956 63.1473C69.8422 61.8011 69.2653 59.9377 69.2653 57.5568V39.446C69.2653 37.6888 69.0074 35.9386 68.4921 34.1956C68.0012 32.4667 67.3016 30.8157 66.3935 29.2427C65.4853 27.6697 64.4053 26.2384 63.1535 24.9489C61.9017 23.6309 60.5271 22.5398 59.0299 21.6753L53.3599 18.4018L34.5092 29.2853Z" fill="#6580E1" fill-opacity="0.6"/>
<path fill-rule="evenodd" clip-rule="evenodd" d="M57.2627 85.8709C55.0046 84.5672 53.2986 83.9366 52.1449 83.979C51.9142 83.9819 51.7066 84.0309 51.522 84.1261L70.3728 73.2427C70.5574 73.1474 70.765 73.0984 70.9957 73.0955C72.1494 73.0531 73.8554 73.6837 76.1135 74.9874L57.2627 85.8709Z" fill="#6580E1" fill-opacity="0.6"/>
<path fill-rule="evenodd" clip-rule="evenodd" d="M51.5221 84.1262C50.7838 84.5071 50.4146 85.6272 50.4146 87.4865V105.767C50.4146 107.525 50.1568 108.977 49.6414 110.125C49.1505 111.287 48.451 112.144 47.5428 112.697L66.3936 101.814C67.3017 101.261 68.0013 100.404 68.4922 99.2415C69.0075 98.0935 69.2654 96.6412 69.2654 94.884V76.603C69.2654 74.7437 69.6346 73.6236 70.3728 73.2427L51.5221 84.1262Z" fill="#6580E1" fill-opacity="0.6"/>
<path fill-rule="evenodd" clip-rule="evenodd" d="M47.5427 112.697C47.5246 112.708 47.5063 112.719 47.488 112.73L66.3388 101.846C66.3571 101.836 66.3753 101.825 66.3935 101.814L47.5427 112.697Z" fill="#6580E1" fill-opacity="0.6"/>
<path fill-rule="evenodd" clip-rule="evenodd" d="M47.488 112.73C46.5913 113.258 45.5295 113.445 44.3027 113.292C43.0509 113.165 41.6764 112.669 40.1791 111.804L34.5092 108.531V100.666L53.3599 89.7822V97.6473L59.0299 100.921C60.5271 101.785 61.9017 102.281 63.1535 102.409C64.3803 102.562 65.442 102.374 66.3388 101.846L47.488 112.73Z" fill="#6580E1" fill-opacity="0.6"/>
<path d="M34.5092 100.666L40.1791 103.939C41.48 104.69 42.3637 104.889 42.83 104.534C43.3209 104.223 43.5664 103.316 43.5664 101.814V83.5326C43.5664 82.2573 43.7627 81.1802 44.1555 80.3016C44.5727 79.4372 45.0882 78.7712 45.7018 78.3036C46.34 77.8218 47.0641 77.5738 47.8741 77.5595C48.7086 77.5311 49.58 77.6942 50.4881 78.0485C48.6718 76.603 47.0641 74.6544 45.665 72.2028C44.2659 69.7229 43.5664 67.1508 43.5664 64.4865V46.3758C43.5664 44.8453 43.3209 43.6691 42.83 42.8471C42.3637 42.011 41.48 41.2174 40.1791 40.4664L34.5092 37.1928V29.2853L40.1791 32.5588C41.6764 33.4233 43.0509 34.5144 44.3027 35.8324C45.5545 37.122 46.6345 38.5532 47.5427 40.1262C48.4509 41.6992 49.1504 43.3502 49.6413 45.0791C50.1567 46.8221 50.4146 48.5723 50.4146 50.3296V68.4403C50.4146 70.8212 50.9914 72.6847 52.1449 74.0308C53.2985 75.3488 55.0045 76.6596 57.2627 77.9634V85.8709C55.0045 84.5672 53.2985 83.9366 52.1449 83.979C50.9914 83.9933 50.4146 85.1624 50.4146 87.4864V105.767C50.4146 107.525 50.1567 108.977 49.6413 110.125C49.1504 111.287 48.4509 112.144 47.5427 112.697C46.6345 113.25 45.5545 113.448 44.3027 113.292C43.0509 113.165 41.6764 112.669 40.1791 111.804L34.5092 108.531V100.666Z" fill="white"/>
</svg>
